HIERARCHY
ROOT Hips
{
	OFFSET -3.958830 18.904000 13.208200
	CHANNELS 6 Xposition Yposition Zposition Zrotation Yrotation Xrotation 
	JOINT LHipJoint
	{
		OFFSET 0.000000 0.000000 0.000000
		CHANNELS 3 Zrotation Yrotation Xrotation
		JOINT LeftUpLeg
		{
			OFFSET 1.800000 -1.400000 0.085000
			CHANNELS 3 Zrotation Yrotation Xrotation
			JOINT LeftLeg
			{
				OFFSET 2.215000 -6.000000 0.000000
				CHANNELS 3 Zrotation Yrotation Xrotation
				JOINT LeftFoot
				{
					OFFSET 2.500000 -6.900000 0.000000
					CHANNELS 3 Zrotation Yrotation Xrotation
					JOINT LeftToeBase
					{
						OFFSET 0.200000 -0.500000 1.950000
						CHANNELS 3 Zrotation Yrotation Xrotation
						End Site
						{
							OFFSET 0.000000 0.000000 0.000000
						}
					}
				}
			}
		}
	}
	JOINT RHipJoint
	{
		OFFSET 0.000000 0.000000 0.000000
		CHANNELS 3 Zrotation Yrotation Xrotation
		JOINT RightUpLeg
		{
			OFFSET -1.800000 -1.400000 0.085000
			CHANNELS 3 Zrotation Yrotation Xrotation
			JOINT RightLeg
			{
				OFFSET -2.215000 -6.000000 0.000000
				CHANNELS 3 Zrotation Yrotation Xrotation
				JOINT RightFoot
				{
					OFFSET -2.500000 -6.900000 0.000000
					CHANNELS 3 Zrotation Yrotation Xrotation
					JOINT RightToeBase
					{
						OFFSET -0.200000 -0.500000 1.950000
						CHANNELS 3 Zrotation Yrotation Xrotation
						End Site
						{
							OFFSET 0.000000 0.000000 0.000000
						}
					}
				}
			}
		}
	}
	JOINT LowerBack
	{
		OFFSET 0.000000 0.000000 0.000000
		CHANNELS 3 Zrotation Yrotation Xrotation
		JOINT Spine
		{
			OFFSET -0.087000 1.940000 -0.288900
			CHANNELS 3 Zrotation Yrotation Xrotation
			JOINT Spine1
			{
				OFFSET 0.000000 1.950000 0.060000
				CHANNELS 3 Zrotation Yrotation Xrotation
				JOINT Neck
				{
					OFFSET 0.000000 0.000000 0.000000
					CHANNELS 3 Zrotation Yrotation Xrotation
					JOINT Neck1
					{
						OFFSET 0.000000 1.600000 0.340000
						CHANNELS 3 Zrotation Yrotation Xrotation
						JOINT Head
						{
							OFFSET 0.000000 1.667000 -0.240000
							CHANNELS 3 Zrotation Yrotation Xrotation
							End Site
							{
								OFFSET 0.000000 0.000000 0.000000
							}
						}
					}
				}
				JOINT LeftShoulder
				{
					OFFSET 0.000000 0.000000 0.000000
					CHANNELS 3 Zrotation Yrotation Xrotation
					JOINT LeftArm
					{
						OFFSET 2.700000 1.550000 -0.730000
						CHANNELS 3 Zrotation Yrotation Xrotation
						JOINT LeftForeArm
						{
							OFFSET 5.450000 0.000000 0.000000
							CHANNELS 3 Zrotation Yrotation Xrotation
							JOINT LeftHand
							{
								OFFSET 3.450000 0.000000 0.000000
								CHANNELS 3 Zrotation Yrotation Xrotation
								JOINT LeftHandIndex1
								{
									OFFSET 0.750000 0.000000 0.000000
									CHANNELS 3 Zrotation Yrotation Xrotation
									End Site
									{
										OFFSET 0.000000 0.000000 0.000000
									}
								}
							}
						}
					}
				}
				JOINT RightShoulder
				{
					OFFSET 0.000000 0.000000 0.000000
					CHANNELS 3 Zrotation Yrotation Xrotation
					JOINT RightArm
					{
						OFFSET -2.700000 1.550000 -0.730000
						CHANNELS 3 Zrotation Yrotation Xrotation
						JOINT RightForeArm
						{
							OFFSET -5.450000 0.000000 0.000000
							CHANNELS 3 Zrotation Yrotation Xrotation
							JOINT RightHand
							{
								OFFSET -3.450000 0.000000 0.000000
								CHANNELS 3 Zrotation Yrotation Xrotation
								JOINT RightHandIndex1
								{
									OFFSET -0.750000 0.000000 0.000000
									CHANNELS 3 Zrotation Yrotation Xrotation
									End Site
									{
										OFFSET 0.000000 0.000000 0.000000
									}
								}
							}
						}
					}
				}
			}
		}
	}
}
MOTION
Frames: 10
Frame Time: 0.016667
1.999380 18.509650 -0.019640 5.652626 26.947371 -10.644966 -15.809113 11.264379 6.676130 31.814383 -1.653168 -28.764597 -56.399473 36.931680 35.353334 1.866924 13.573582 0.035545 0.212680 -0.038640 0.307840 18.089139 -8.746941 1.758384 -9.542145 6.364170 -14.498211 5.404130 -15.520175 60.511410 -1.678620 -9.867783 1.007125 -0.027390 0.097910 0.153210 -2.439987 -3.605773 -9.372428 1.306363 -1.226424 36.457581 -5.283385 3.844191 7.527933 4.376331 -4.130736 -15.384751 -10.970732 9.654003 34.243879 -4.688210 10.882890 -20.182850 1.860389 -29.832050 2.444982 12.659909 -25.212806 -11.498004 94.605832 -59.343915 -58.480826 -3.720384 1.714181 0.680270 -0.041830 0.116790 0.000140 -9.908178 35.037094 9.809890 -8.847488 -1.623575 -18.194395 -81.049835 65.181550 -46.710309 1.171157 -0.034326 -0.258000 0.258900 0.145490 -0.283840 
2.139880 18.545490 -0.048750 3.184031 29.637213 -11.620104 -15.691618 11.238831 6.142058 29.569406 -2.885494 -27.188725 -48.239841 32.609489 36.221084 1.670244 13.265785 0.102980 0.185620 -0.077570 0.289240 18.185963 -8.420594 2.375677 -9.945248 7.757717 -18.572709 8.813284 -21.567029 68.896197 -2.214488 -11.994425 0.428172 -0.036400 0.136890 0.136980 -2.718870 -3.731963 -9.432199 5.704488 -4.018150 36.651569 -7.181768 1.631379 7.985739 4.925554 -4.514050 -15.734419 -11.738657 9.417995 32.776654 -5.423620 10.489540 -18.036720 0.908828 -29.982813 2.747496 12.017158 -24.350977 -12.048955 96.336667 -56.945539 -58.246528 -3.849785 1.844771 0.641800 -0.009470 0.071690 0.011380 -10.200603 34.200226 10.416339 -7.031923 -3.502893 -18.358668 -85.189502 61.067796 -48.897357 1.337987 -0.323730 -0.278290 0.267810 0.146510 -0.276250 
2.260530 18.541400 -0.074870 1.288080 31.168096 -12.250322 -15.632875 11.405099 5.447595 27.099805 -3.350789 -24.888517 -40.248600 28.241280 36.152490 1.322110 12.662773 0.236042 0.173010 -0.120180 0.296180 18.215093 -8.070879 3.031528 -10.729359 9.074039 -22.638100 12.618246 -27.770475 74.689676 -2.673749 -13.842902 -0.055086 -0.014450 0.196060 0.150300 -2.820228 -4.076009 -9.404462 8.182753 -5.441045 36.104277 -7.541572 0.024438 8.917005 5.205236 -4.544897 -15.542827 -11.300577 9.907705 30.525255 -6.521290 11.261900 -15.645870 -0.476581 -30.473212 2.913634 12.658194 -23.173659 -12.699050 96.782482 -55.874270 -57.485455 -3.996903 1.931330 0.603840 0.062080 0.005130 0.008850 -9.515459 33.659309 10.520469 -6.619054 -4.376821 -18.421822 -86.811717 58.212876 -49.514254 1.396008 -0.572175 -0.321200 0.267090 0.168140 -0.297320 
2.388360 18.501440 -0.078970 -0.427657 32.185785 -12.125366 -15.543897 11.581575 4.651656 24.567935 -3.191938 -22.448381 -32.951154 23.816953 34.600136 0.932425 11.618764 0.508918 0.121000 -0.189570 0.249660 18.267190 -7.823722 3.722041 -12.290034 10.112715 -27.008833 17.538848 -34.066708 77.330806 -3.021779 -15.251237 -0.405644 -0.028310 0.236380 0.146630 -3.080290 -4.206804 -9.356201 11.632262 -6.911936 34.326525 -8.839850 -1.316665 9.039809 5.567749 -5.071657 -15.570335 -12.375122 10.483610 29.567204 -6.908660 11.568870 -12.881220 -1.439440 -29.985723 3.233637 11.138752 -23.513226 -12.424267 96.300108 -54.376149 -55.779490 -4.086811 2.031603 0.568190 0.099720 -0.056300 -0.003130 -9.291232 32.530342 10.557494 -5.388893 -4.952246 -17.859922 -88.115737 56.598486 -50.123652 1.395186 -0.684180 -0.350890 0.246450 0.207950 -0.299940 
2.526440 18.432300 -0.081780 -2.127627 33.110172 -12.297562 -15.434887 11.759638 3.746030 21.997065 -2.723258 -18.867229 -26.816870 19.192672 30.767095 0.453711 10.184370 0.947404 0.135360 -0.174470 0.255600 18.346282 -7.717989 4.359888 -13.823610 10.849684 -31.300776 22.647295 -39.691756 78.117554 -3.293573 -16.235812 -0.619288 0.022150 0.293420 0.166600 -3.456285 -4.074990 -9.196835 15.151223 -8.444743 31.980009 -10.328381 -2.893949 10.193659 5.463426 -5.439245 -14.954056 -12.677980 11.054882 27.902064 -7.047470 11.573260 -12.609610 -1.903591 -29.197530 3.514752 9.550641 -23.248463 -12.262610 96.245824 -52.420336 -54.755674 -4.196204 2.087497 0.538520 0.163430 -0.093090 -0.003130 -8.805777 30.642611 9.921700 -4.031097 -3.035433 -17.276284 -86.541587 54.748759 -48.078731 1.333176 -0.794139 -0.374470 0.281690 0.230830 -0.306360 
2.673240 18.355840 -0.100690 -4.429934 36.064763 -13.504940 -15.355300 12.056556 2.871517 19.410452 -2.385164 -14.403843 -20.785487 14.233814 24.938660 -0.039484 8.385941 1.564169 0.115220 -0.221010 0.244380 18.385766 -7.748093 4.852521 -15.634215 10.026605 -34.619332 29.524642 -44.839445 75.000329 -3.400622 -16.473760 -0.675811 0.020740 0.326320 0.200670 -3.827729 -4.014707 -8.960673 19.054452 -10.888301 29.988255 -11.940985 -5.050193 10.920616 5.542515 -5.674618 -14.645075 -13.146409 10.404755 27.151536 -7.417420 10.450810 -13.044720 -2.176724 -28.997746 3.673590 7.644958 -23.530354 -12.288086 95.016137 -50.764839 -52.628432 -4.304171 2.126855 0.553320 0.190150 -0.108620 -0.020960 -8.817224 29.206716 9.696843 -1.458323 -2.389185 -17.190014 -83.895881 53.120112 -44.832990 1.294678 -0.889224 -0.394820 0.298230 0.281420 -0.317160 
2.847160 18.221700 -0.099520 -6.686550 37.349193 -12.616862 -15.259959 11.944259 2.249857 17.666960 -1.799036 -11.208713 -16.836707 10.611474 17.737421 -0.387678 6.908965 2.152726 0.098860 -0.226660 0.183540 18.533396 -7.778478 5.183325 -16.570281 9.620834 -39.289278 36.783222 -47.562455 69.547119 -3.321608 -16.161346 -0.594256 0.065700 0.434930 0.208470 -4.333062 -3.447512 -8.721531 24.723945 -12.710183 24.524327 -14.643210 -6.170992 11.827192 5.373778 -6.336614 -14.305699 -13.955250 10.233901 25.018583 -6.378980 9.304600 -11.165150 -2.044317 -27.565669 4.219959 4.015148 -24.512177 -10.953812 96.471876 -48.222971 -52.954628 -4.384335 2.173892 0.492070 0.273800 -0.184740 -0.000200 -8.607982 26.913334 9.122892 1.793084 -0.798487 -16.118401 -81.463352 51.730608 -41.896073 1.231102 -1.000034 -0.429040 0.345270 0.320790 -0.292180 
2.992760 18.057130 -0.100240 -8.111215 38.224309 -11.229595 -15.230157 11.825961 1.914091 15.973412 -1.525737 -9.030138 -13.712476 8.243333 12.150558 -0.594081 6.001686 2.559777 0.108520 -0.194480 0.152160 18.636601 -7.755641 5.349710 -17.096886 9.136276 -43.750382 42.183211 -47.047771 63.339891 -3.119664 -15.499760 -0.451169 0.139430 0.541290 0.218700 -4.563668 -3.119943 -8.530227 28.173476 -13.436525 19.615309 -15.785193 -6.706657 12.649083 5.002030 -6.977193 -13.736628 -14.599836 10.211760 22.637376 -6.111840 8.623110 -9.251660 -2.040594 -26.137159 4.690494 0.158085 -26.280450 -9.559140 97.652916 -44.467834 -51.912934 -4.477339 2.264710 0.405210 0.372670 -0.259690 0.029030 -7.795673 25.089229 8.240716 2.380543 0.886290 -14.640508 -77.861813 50.965005 -38.140225 1.167927 -1.105965 -0.457450 0.391870 0.335140 -0.267330 
3.117310 17.875970 -0.102690 -8.361553 38.460410 -9.593524 -15.237406 11.817701 1.775492 14.007540 -1.387253 -7.322672 -11.614297 7.005260 9.036882 -0.669544 5.580384 2.774693 0.084170 -0.214320 0.103500 18.687359 -7.711563 5.445157 -16.973509 9.017710 -47.474244 43.626503 -43.432856 58.360826 -2.843546 -14.749865 -0.301046 0.160120 0.631680 0.254780 -4.593346 -3.049873 -8.417350 29.160401 -13.459820 16.399589 -15.602145 -6.880639 12.833026 4.703941 -7.242428 -13.481196 -14.690346 10.519511 21.038071 -6.384010 8.788610 -7.057210 -2.988087 -25.159369 5.245618 -2.636954 -26.470663 -8.324716 99.147648 -42.365860 -51.903233 -4.557292 2.351083 0.325910 0.467150 -0.328410 0.043300 -6.149348 24.190294 7.782522 2.427294 2.631139 -13.404248 -74.397537 48.775116 -34.168668 1.194767 -1.272577 -0.467100 0.385680 0.364140 -0.247250 
3.227040 17.679480 -0.104060 -7.995706 39.106452 -9.257581 -15.276857 11.977691 1.725393 12.104382 -1.153411 -5.084558 -9.915969 6.434495 7.927092 -0.722451 5.414934 2.865460 0.120900 -0.161820 0.149830 18.671139 -7.735972 5.392741 -16.481310 8.370959 -48.508007 42.927294 -39.305542 54.445921 -2.582375 -13.889938 -0.134023 0.215450 0.629990 0.255480 -4.529210 -3.211353 -8.305410 27.941397 -13.601303 15.250135 -14.754971 -7.612439 13.735687 4.275703 -6.966445 -13.185356 -14.083628 11.227523 20.446384 -7.162420 9.804040 -7.655170 -3.223036 -24.912064 5.490448 -4.424233 -26.337095 -8.281814 99.003200 -40.312296 -50.360777 -4.597584 2.393748 0.315120 0.491910 -0.327900 0.041540 -5.104856 23.420041 7.478424 4.364916 4.974656 -12.815449 -72.368155 45.220553 -31.386530 1.258764 -1.427332 -0.482080 0.401230 0.348230 -0.266830 
